<?xml version="1.0" encoding="UTF-8" standalone="no"?>
<!DOCTYPE svg PUBLIC "-//W3C//DTD SVG 1.1//EN" "http://www.w3.org/Graphics/SVG/1.1/DTD/svg11.dtd">
<svg version="1.1" xmlns="http://www.w3.org/2000/svg" xmlns:xlink="http://www.w3.org/1999/xlink" preserveAspectRatio="xMidYMid meet" viewBox="0 0 640 640" width="80" height="80"><defs><path d="M265.37 193.76C269.44 195.34 272.52 198.75 273.69 202.95C277.7 217.23 285.24 244.12 288.59 256.08C290.08 261.4 297.6 261.47 299.19 256.18C303.2 242.81 307.25 229.33 310.63 218.07C314.18 206.25 329.7 203.58 337 213.52C338.93 216.15 333.45 208.69 337 213.52C343.41 222.26 348.98 231.58 353.62 241.37C355.89 246.15 352.23 238.43 353.62 241.37C357.7 249.97 370.19 249.17 373.15 240.13C374.34 236.47 371.51 245.15 373.15 240.13C377.13 227.94 380.15 215.47 382.21 202.82C383.34 195.82 384.44 189.04 385.77 180.85C386.99 173.33 393.48 167.81 401.09 167.81C404.87 167.81 401.37 167.81 404.74 167.81C413.17 167.81 420 174.64 420 183.07C420 192.03 420 214.44 420 250.29C420 281.41 420 300.86 420 308.64C420 314.91 414.91 320 408.64 320C375.29 320 283.36 320 249.2 320C245.17 320 241.9 316.73 241.9 312.7C241.9 302.82 241.9 278.13 241.9 238.61C241.9 220.44 241.9 209.08 241.9 204.54C241.9 194.95 251.54 188.36 260.47 191.85C262.74 192.73 260.68 191.93 265.37 193.76Z" id="aA4PJ44Z4"></path></defs><g><g><g><use xlink:href="#aA4PJ44Z4" opacity="1" fill="#ff98ab" fill-opacity="1"></use><g><use xlink:href="#aA4PJ44Z4" opacity="1" fill-opacity="0" stroke="#000000" stroke-width="5" stroke-opacity="1"></use></g></g></g></g></svg>