<?xml version="1.0" encoding="UTF-8" standalone="no"?>
<!DOCTYPE svg PUBLIC "-//W3C//DTD SVG 1.1//EN" "http://www.w3.org/Graphics/SVG/1.1/DTD/svg11.dtd">
<svg version="1.1" xmlns="http://www.w3.org/2000/svg" xmlns:xlink="http://www.w3.org/1999/xlink" preserveAspectRatio="xMidYMid meet" viewBox="0 0 60 60" width="60" height="60"><defs><path d="M8.25 18.31C9.58 18.82 10.6 19.92 10.99 21.3C12.32 25.96 14.82 34.76 15.94 38.67C16.44 40.42 18.92 40.45 19.45 38.7C20.78 34.33 22.13 29.91 23.26 26.23C24.44 22.34 29.55 21.45 31.98 24.71C32.62 25.58 30.85 23.19 32.03 24.78C34.14 27.62 35.98 30.65 37.52 33.84C38.28 35.4 37.07 32.91 37.54 33.88C38.91 36.71 43.02 36.44 44.01 33.46C44.41 32.26 43.47 35.08 44.02 33.44C45.33 29.46 46.34 25.39 47.02 21.26C47.4 18.97 47.76 16.75 48.2 14.07C48.61 11.62 50.73 9.82 53.22 9.82C54.49 9.82 53.45 9.82 54.58 9.82C57.34 9.82 59.57 12.05 59.57 14.8C59.57 17.73 59.57 25.05 59.57 36.77C59.57 46.94 59.57 53.29 59.57 55.83C59.57 57.88 57.91 59.55 55.86 59.55C44.77 59.55 14.17 59.55 2.81 59.55C1.5 59.55 0.43 58.48 0.43 57.16C0.43 53.93 0.43 45.86 0.43 32.95C0.43 27.01 0.43 23.3 0.43 21.82C0.43 18.68 3.58 16.51 6.51 17.64C7.28 17.93 6.69 17.71 8.25 18.31Z" id="f3Tas3F4NK"></path></defs><g><g><g><use xlink:href="#f3Tas3F4NK" opacity="1" fill="#ff98ab" fill-opacity="1"></use><g><use xlink:href="#f3Tas3F4NK" opacity="1" fill-opacity="0" stroke="#000000" stroke-width="1" stroke-opacity="1"></use></g></g></g></g></svg>